<svg xmlns="http://www.w3.org/2000/svg" viewBox="0 0 1111 764"><defs><style>.cls-1{isolation:isolate;}.cls-2,.cls-3{fill:none;stroke:#f08231;stroke-miterlimit:10;}.cls-2{stroke-width:20px;opacity:0.2;}.cls-3{stroke-width:5px;opacity:0.5;}.cls-4{mix-blend-mode:multiply;opacity:0.75;}</style></defs><g class="cls-1"><g id="Layer_1" data-name="Layer 1"><circle class="cls-2" cx="456.51" cy="251.77" r="93.98"/><circle class="cls-2" cx="201.22" cy="235.37" r="77.48"/><circle class="cls-2" cx="323.07" cy="129.26" r="21.09"/><circle class="cls-2" cx="469.04" cy="52.01" r="38.51"/><circle class="cls-2" cx="158.06" cy="392.71" r="54.69"/><circle class="cls-2" cx="312.94" cy="343.94" r="35.21"/><circle class="cls-2" cx="329.52" cy="457.35" r="22.41"/><circle class="cls-2" cx="218.41" cy="487.76" r="32.33"/><circle class="cls-2" cx="137.28" cy="617.47" r="41.4"/><circle class="cls-2" cx="73.83" cy="507.47" r="11.27"/><circle class="cls-2" cx="761.9" cy="174.84" r="40.36"/><circle class="cls-2" cx="571.73" cy="122.42" r="37.06"/><circle class="cls-2" cx="670.95" cy="511.9" r="93.98"/><circle class="cls-2" cx="926.23" cy="528.31" r="77.48"/><circle class="cls-2" cx="804.39" cy="634.41" r="21.09"/><circle class="cls-2" cx="658.41" cy="711.67" r="38.51"/><circle class="cls-2" cx="969.4" cy="370.96" r="54.69"/><circle class="cls-2" cx="814.52" cy="419.73" r="35.21"/><circle class="cls-2" cx="456.39" cy="252.1" r="93.98"/><circle class="cls-2" cx="201.11" cy="235.69" r="77.48"/><circle class="cls-2" cx="322.95" cy="129.59" r="21.09"/><circle class="cls-2" cx="468.92" cy="52.33" r="38.51"/><circle class="cls-2" cx="157.94" cy="393.04" r="54.69"/><circle class="cls-2" cx="312.82" cy="344.27" r="35.21"/><circle class="cls-2" cx="329.4" cy="457.67" r="22.41"/><circle class="cls-2" cx="218.29" cy="488.08" r="32.33"/><circle class="cls-2" cx="137.16" cy="617.79" r="41.4"/><circle class="cls-2" cx="73.71" cy="507.79" r="11.27"/><circle class="cls-2" cx="761.78" cy="175.17" r="40.36"/><circle class="cls-2" cx="571.61" cy="122.75" r="37.06"/><circle class="cls-2" cx="670.83" cy="512.23" r="93.98"/><circle class="cls-2" cx="926.12" cy="528.63" r="77.48"/><circle class="cls-2" cx="804.27" cy="634.74" r="21.09"/><circle class="cls-2" cx="658.3" cy="711.99" r="38.51"/><circle class="cls-2" cx="969.28" cy="371.29" r="54.69"/><circle class="cls-2" cx="814.4" cy="420.06" r="35.21"/><circle class="cls-2" cx="797.82" cy="306.65" r="22.41"/><circle class="cls-2" cx="908.93" cy="276.24" r="32.33"/><circle class="cls-2" cx="990.06" cy="146.53" r="41.4"/><circle class="cls-2" cx="1053.51" cy="256.53" r="11.27"/><circle class="cls-2" cx="365.44" cy="589.16" r="40.36"/><circle class="cls-2" cx="555.61" cy="641.58" r="37.06"/><circle class="cls-2" cx="654.49" cy="318.21" r="62.68"/><circle class="cls-2" cx="479.4" cy="470.97" r="37.06"/><circle class="cls-2" cx="797.94" cy="306.33" r="22.41"/><circle class="cls-2" cx="909.05" cy="275.92" r="32.33"/><circle class="cls-2" cx="990.18" cy="146.21" r="41.4"/><circle class="cls-2" cx="1053.63" cy="256.21" r="11.27"/><circle class="cls-2" cx="365.55" cy="588.83" r="40.36"/><circle class="cls-2" cx="555.72" cy="641.25" r="37.06"/><circle class="cls-2" cx="654.61" cy="317.89" r="62.68"/><circle class="cls-2" cx="479.52" cy="470.65" r="37.06"/><circle class="cls-2" cx="636.21" cy="234.98" r="93.98"/><circle class="cls-2" cx="699.93" cy="65.4" r="21.09"/><circle class="cls-2" cx="826.17" cy="171.9" r="38.51"/><circle class="cls-2" cx="497.04" cy="136.29" r="35.21"/><circle class="cls-2" cx="398.06" cy="194.07" r="22.41"/><circle class="cls-2" cx="328.31" cy="102.39" r="32.33"/><circle class="cls-2" cx="177.67" cy="75.65" r="41.4"/><circle class="cls-2" cx="999.81" cy="502.89" r="88.8"/><circle class="cls-2" cx="922.19" cy="332.75" r="62.68"/><circle class="cls-2" cx="821.76" cy="489.45" r="40.36"/><circle class="cls-2" cx="1068.24" cy="346.5" r="25.68"/><circle class="cls-2" cx="799.26" cy="293.47" r="37.06"/><circle class="cls-2" cx="475.14" cy="531.13" r="93.98"/><circle class="cls-2" cx="411.42" cy="700.7" r="21.09"/><circle class="cls-2" cx="285.18" cy="594.2" r="38.51"/><circle class="cls-2" cx="614.31" cy="629.82" r="35.21"/><circle class="cls-2" cx="635.86" cy="234.99" r="93.98"/><circle class="cls-2" cx="699.58" cy="65.42" r="21.09"/><circle class="cls-2" cx="825.82" cy="171.91" r="38.51"/><circle class="cls-2" cx="496.69" cy="136.3" r="35.21"/><circle class="cls-2" cx="397.71" cy="194.08" r="22.41"/><circle class="cls-2" cx="327.96" cy="102.4" r="32.33"/><circle class="cls-2" cx="177.33" cy="75.66" r="41.4"/><circle class="cls-2" cx="999.47" cy="502.91" r="88.8"/><circle class="cls-2" cx="921.84" cy="332.77" r="62.68"/><circle class="cls-2" cx="821.41" cy="489.46" r="40.36"/><circle class="cls-2" cx="1067.89" cy="346.52" r="25.68"/><circle class="cls-2" cx="798.92" cy="293.48" r="37.06"/><circle class="cls-2" cx="474.79" cy="531.14" r="93.98"/><circle class="cls-2" cx="411.07" cy="700.72" r="21.09"/><circle class="cls-2" cx="284.83" cy="594.22" r="38.51"/><circle class="cls-2" cx="613.96" cy="629.83" r="35.21"/><circle class="cls-2" cx="712.94" cy="572.05" r="22.41"/><circle class="cls-2" cx="782.69" cy="663.73" r="32.33"/><circle class="cls-2" cx="933.33" cy="690.47" r="41.4"/><circle class="cls-2" cx="111.19" cy="263.23" r="88.8"/><circle class="cls-2" cx="188.81" cy="433.37" r="62.68"/><circle class="cls-2" cx="289.24" cy="276.67" r="40.36"/><circle class="cls-2" cx="42.76" cy="419.61" r="25.68"/><circle class="cls-2" cx="311.74" cy="472.65" r="37.06"/><circle class="cls-2" cx="648.62" cy="443.44" r="62.68"/><circle class="cls-2" cx="441.47" cy="338.18" r="37.06"/><circle class="cls-2" cx="713.29" cy="572.04" r="22.41"/><circle class="cls-2" cx="783.04" cy="663.72" r="32.33"/><circle class="cls-2" cx="933.67" cy="690.45" r="41.4"/><circle class="cls-2" cx="111.53" cy="263.21" r="88.8"/><circle class="cls-2" cx="189.16" cy="433.35" r="62.68"/><circle class="cls-2" cx="289.59" cy="276.66" r="40.36"/><circle class="cls-2" cx="43.11" cy="419.6" r="25.68"/><circle class="cls-2" cx="312.08" cy="472.63" r="37.06"/><circle class="cls-2" cx="648.97" cy="443.43" r="62.68"/><circle class="cls-2" cx="441.82" cy="338.16" r="37.06"/><circle class="cls-3" cx="527.4" cy="542.81" r="93.98"/><circle class="cls-3" cx="522.36" cy="723.9" r="21.09"/><circle class="cls-3" cx="368.32" cy="664.3" r="38.51"/><circle class="cls-3" cx="829.47" cy="675.82" r="54.69"/><circle class="cls-3" cx="691.12" cy="590.82" r="35.21"/><circle class="cls-3" cx="765.89" cy="503.96" r="22.41"/><circle class="cls-3" cx="861.69" cy="567.94" r="32.33"/><circle class="cls-3" cx="1012.82" cy="544.18" r="41.4"/><circle class="cls-3" cx="971.35" cy="664.2" r="11.27"/><circle class="cls-3" cx="96.38" cy="407.87" r="88.8"/><circle class="cls-3" cx="225.17" cy="543.47" r="62.68"/><circle class="cls-3" cx="269.11" cy="362.62" r="40.36"/><circle class="cls-3" cx="82.6" cy="578.02" r="25.68"/><circle class="cls-3" cx="354.18" cy="540.59" r="37.06"/><circle class="cls-3" cx="583.28" cy="210.36" r="93.98"/><circle class="cls-3" cx="588.32" cy="29.28" r="21.09"/><circle class="cls-3" cx="742.36" cy="88.87" r="38.51"/><circle class="cls-3" cx="281.21" cy="77.36" r="54.69"/><circle class="cls-3" cx="419.56" cy="162.36" r="35.21"/><circle class="cls-3" cx="527.72" cy="542.69" r="93.98"/><circle class="cls-3" cx="522.68" cy="723.77" r="21.09"/><circle class="cls-3" cx="368.64" cy="664.18" r="38.51"/><circle class="cls-3" cx="829.79" cy="675.69" r="54.69"/><circle class="cls-3" cx="691.44" cy="590.69" r="35.21"/><circle class="cls-3" cx="766.22" cy="503.84" r="22.41"/><circle class="cls-3" cx="862.01" cy="567.81" r="32.33"/><circle class="cls-3" cx="1013.15" cy="544.05" r="41.4"/><circle class="cls-3" cx="971.67" cy="664.08" r="11.27"/><circle class="cls-3" cx="96.7" cy="407.75" r="88.8"/><circle class="cls-3" cx="225.49" cy="543.35" r="62.68"/><circle class="cls-3" cx="269.44" cy="362.49" r="40.36"/><circle class="cls-3" cx="82.92" cy="577.9" r="25.68"/><circle class="cls-3" cx="354.51" cy="540.47" r="37.06"/><circle class="cls-3" cx="583.6" cy="210.24" r="93.98"/><circle class="cls-3" cx="588.64" cy="29.15" r="21.09"/><circle class="cls-3" cx="742.68" cy="88.75" r="38.51"/><circle class="cls-3" cx="281.53" cy="77.23" r="54.69"/><circle class="cls-3" cx="419.88" cy="162.23" r="35.21"/><circle class="cls-3" cx="345.11" cy="249.09" r="22.41"/><circle class="cls-3" cx="249.31" cy="185.11" r="32.33"/><circle class="cls-3" cx="98.18" cy="208.87" r="41.4"/><circle class="cls-3" cx="139.65" cy="88.85" r="11.27"/><circle class="cls-3" cx="1014.62" cy="345.18" r="88.8"/><circle class="cls-3" cx="885.83" cy="209.58" r="62.68"/><circle class="cls-3" cx="841.89" cy="390.43" r="40.36"/><circle class="cls-3" cx="1028.4" cy="175.03" r="25.68"/><circle class="cls-3" cx="756.82" cy="212.46" r="37.06"/><circle class="cls-3" cx="447.79" cy="349.75" r="62.68"/><circle class="cls-3" cx="677.93" cy="381.84" r="37.06"/><circle class="cls-3" cx="344.78" cy="249.21" r="22.41"/><circle class="cls-3" cx="248.99" cy="185.24" r="32.33"/><circle class="cls-3" cx="97.85" cy="209" r="41.4"/><circle class="cls-3" cx="139.33" cy="88.97" r="11.27"/><circle class="cls-3" cx="1014.3" cy="345.3" r="88.8"/><circle class="cls-3" cx="885.51" cy="209.7" r="62.68"/><circle class="cls-3" cx="841.56" cy="390.56" r="40.36"/><circle class="cls-3" cx="1028.08" cy="175.15" r="25.68"/><circle class="cls-3" cx="756.49" cy="212.58" r="37.06"/><circle class="cls-3" cx="447.47" cy="349.87" r="62.68"/><circle class="cls-3" cx="677.61" cy="381.96" r="37.06"/><circle class="cls-3" cx="396.92" cy="418.12" r="93.98"/><circle class="cls-3" cx="119.07" cy="392.23" r="60.51"/><circle class="cls-3" cx="266.08" cy="637.94" r="77.48"/><circle class="cls-3" cx="227.09" cy="481.15" r="21.09"/><circle class="cls-3" cx="224.76" cy="316.01" r="38.51"/><circle class="cls-3" cx="413.62" cy="587.91" r="35.21"/><circle class="cls-3" cx="522.13" cy="624.78" r="22.41"/><circle class="cls-3" cx="283.3" cy="138.06" r="62.68"/><circle class="cls-3" cx="467.46" cy="111.19" r="40.36"/><circle class="cls-3" cx="334.21" cy="256.64" r="37.06"/><circle class="cls-3" cx="726.15" cy="345.63" r="93.98"/><circle class="cls-3" cx="1004" cy="371.51" r="60.51"/><circle class="cls-3" cx="856.99" cy="125.81" r="77.48"/><circle class="cls-3" cx="895.98" cy="282.59" r="21.09"/><circle class="cls-3" cx="898.31" cy="447.74" r="38.51"/><circle class="cls-3" cx="709.45" cy="175.84" r="35.21"/><circle class="cls-3" cx="397.16" cy="418.37" r="93.98"/><circle class="cls-3" cx="119.31" cy="392.49" r="60.51"/><circle class="cls-3" cx="266.32" cy="638.19" r="77.48"/><circle class="cls-3" cx="227.33" cy="481.41" r="21.09"/><circle class="cls-3" cx="225" cy="316.26" r="38.51"/><circle class="cls-3" cx="413.86" cy="588.16" r="35.21"/><circle class="cls-3" cx="522.37" cy="625.04" r="22.41"/><circle class="cls-3" cx="283.53" cy="138.31" r="62.68"/><circle class="cls-3" cx="467.7" cy="111.44" r="40.36"/><circle class="cls-3" cx="334.45" cy="256.89" r="37.06"/><circle class="cls-3" cx="726.39" cy="345.88" r="93.98"/><circle class="cls-3" cx="1004.24" cy="371.77" r="60.51"/><circle class="cls-3" cx="857.23" cy="126.06" r="77.48"/><circle class="cls-3" cx="896.22" cy="282.85" r="21.09"/><circle class="cls-3" cx="898.55" cy="447.99" r="38.51"/><circle class="cls-3" cx="709.69" cy="176.09" r="35.21"/><circle class="cls-3" cx="601.18" cy="139.22" r="22.41"/><circle class="cls-3" cx="840.01" cy="625.94" r="62.68"/><circle class="cls-3" cx="655.85" cy="652.81" r="40.36"/><circle class="cls-3" cx="789.1" cy="507.36" r="37.06"/><circle class="cls-3" cx="546.21" cy="272.1" r="62.68"/><circle class="cls-3" cx="602.51" cy="497.53" r="37.06"/><circle class="cls-3" cx="600.94" cy="138.96" r="22.41"/><circle class="cls-3" cx="839.78" cy="625.69" r="62.68"/><circle class="cls-3" cx="655.61" cy="652.56" r="40.36"/><circle class="cls-3" cx="788.86" cy="507.11" r="37.06"/><circle class="cls-3" cx="545.98" cy="271.84" r="62.68"/><circle class="cls-3" cx="602.27" cy="497.28" r="37.06"/><g class="cls-4"><path d="M181.15,488.4c-54.94,0-98.1-41.2-98.1-99.78s43.16-99.78,98.1-99.78c55.21,0,98.1,41.21,98.1,99.78S236.36,488.4,181.15,488.4Zm0-22.14c41.2,0,72-30,72-77.64,0-47.92-30.83-77.63-72-77.63s-72,29.71-72,77.63C109.12,436.27,140,466.26,181.15,466.26Z"/><path d="M374.82,488.4c-39.24,0-67-21.86-67.55-54.09h27.19c1.68,16.26,13.17,32.51,40.36,32.51,24.67,0,39.24-14,39.24-32.51,0-52.69-105.66-19.06-105.66-91.65,0-32.23,26.06-54.1,64.74-54.1,37.28,0,61.66,20.46,64.75,50.17h-28c-1.68-13.17-14-28-37.84-28.3-21-.56-37.56,10.37-37.56,31.39,0,50.45,105.39,19.06,105.39,91.37C439.85,460.94,417.14,488.4,374.82,488.4Z"/><path d="M540.47,404.88H502.91v81.56H477.4V291.09h63.07c46,0,67.54,25.22,67.54,57.17C608,378,589,404.88,540.47,404.88Zm0-21c29.15,0,41.48-13.73,41.48-35.6,0-22.7-12.33-36.15-41.48-36.15H502.91v71.75Z"/><path d="M706.67,489c-43.44,0-76.52-30.84-76.52-79.6,0-48.49,34.2-79,77.64-79,43.73,0,77.64,30.55,77.64,79C785.43,458.13,750.4,489,706.67,489Zm0-22.43c26.63,0,52.69-18.22,52.69-57.17,0-38.68-25.5-56.9-51.85-56.9-26.9,0-51.29,18.22-51.29,56.9C656.22,448.32,680,466.54,706.67,466.54Z"/><path d="M886.05,489c-43.44,0-76.51-30.84-76.51-79.6,0-48.49,34.19-79,77.63-79,43.73,0,77.64,30.55,77.64,79C964.81,458.13,929.78,489,886.05,489Zm0-22.43c26.63,0,52.7-18.22,52.7-57.17,0-38.68-25.51-56.9-51.86-56.9-26.9,0-51.29,18.22-51.29,56.9C835.6,448.32,859.43,466.54,886.05,466.54Z"/><path d="M998.45,279H1024V486.44h-25.5Z"/></g><path d="M183.15,486.4c-54.94,0-98.1-41.2-98.1-99.78s43.16-99.78,98.1-99.78c55.21,0,98.1,41.21,98.1,99.78S238.36,486.4,183.15,486.4Zm0-22.14c41.2,0,72-30,72-77.64,0-47.92-30.83-77.63-72-77.63s-72,29.71-72,77.63C111.12,434.27,142,464.26,183.15,464.26Z"/><path d="M376.82,486.4c-39.24,0-67-21.86-67.55-54.09h27.19c1.68,16.26,13.17,32.51,40.36,32.51,24.67,0,39.24-14,39.24-32.51,0-52.69-105.66-19.06-105.66-91.65,0-32.23,26.06-54.1,64.74-54.1,37.28,0,61.66,20.46,64.75,50.17h-28c-1.68-13.17-14-28-37.84-28.3-21-.56-37.56,10.37-37.56,31.39,0,50.45,105.39,19.06,105.39,91.37C441.85,458.94,419.14,486.4,376.82,486.4Z"/><path d="M542.47,402.88H504.91v81.56H479.4V289.09h63.07c46,0,67.54,25.22,67.54,57.17C610,376,591,402.88,542.47,402.88Zm0-21c29.15,0,41.48-13.73,41.48-35.6,0-22.7-12.33-36.15-41.48-36.15H504.91v71.75Z"/><path d="M708.67,487c-43.44,0-76.52-30.84-76.52-79.6,0-48.49,34.2-79,77.64-79,43.73,0,77.64,30.55,77.64,79C787.43,456.13,752.4,487,708.67,487Zm0-22.43c26.63,0,52.69-18.22,52.69-57.17,0-38.68-25.5-56.9-51.85-56.9-26.9,0-51.29,18.22-51.29,56.9C658.22,446.32,682,464.54,708.67,464.54Z"/><path d="M888.05,487c-43.44,0-76.51-30.84-76.51-79.6,0-48.49,34.19-79,77.63-79,43.73,0,77.64,30.55,77.64,79C966.81,456.13,931.78,487,888.05,487Zm0-22.43c26.63,0,52.7-18.22,52.7-57.17,0-38.68-25.51-56.9-51.86-56.9-26.9,0-51.29,18.22-51.29,56.9C837.6,446.32,861.43,464.54,888.05,464.54Z"/><path d="M1000.45,277H1026V484.44h-25.5Z"/></g></g></svg>