<svg xmlns="http://www.w3.org/2000/svg" viewBox="0 0 1111 764"><defs><style>.cls-1{isolation:isolate;}.cls-2,.cls-3{fill:none;stroke:#f08231;}.cls-2,.cls-3,.cls-5{stroke-miterlimit:10;}.cls-2{stroke-width:20px;opacity:0.2;}.cls-3{stroke-width:5px;opacity:0.5;}.cls-4{mix-blend-mode:multiply;opacity:0.75;}.cls-5{stroke:#000;stroke-width:10px;}</style></defs><g class="cls-1"><g id="Layer_1" data-name="Layer 1"><circle class="cls-2" cx="469.04" cy="52.01" r="38.51"/><circle class="cls-2" cx="158.06" cy="392.71" r="54.69"/><circle class="cls-2" cx="218.41" cy="487.76" r="32.33"/><circle class="cls-2" cx="137.28" cy="617.47" r="41.4"/><circle class="cls-2" cx="73.83" cy="507.47" r="11.27"/><circle class="cls-2" cx="670.95" cy="511.9" r="93.98"/><circle class="cls-2" cx="658.41" cy="711.67" r="38.51"/><circle class="cls-2" cx="814.52" cy="419.73" r="35.21"/><circle class="cls-2" cx="990.06" cy="146.53" r="41.4"/><circle class="cls-2" cx="1053.51" cy="256.53" r="11.27"/><circle class="cls-2" cx="636.21" cy="234.98" r="93.98"/><circle class="cls-2" cx="699.93" cy="65.4" r="21.09"/><circle class="cls-2" cx="826.17" cy="171.9" r="38.51"/><circle class="cls-2" cx="497.04" cy="136.29" r="35.21"/><circle class="cls-2" cx="328.31" cy="102.39" r="32.33"/><circle class="cls-2" cx="177.67" cy="75.65" r="41.4"/><circle class="cls-2" cx="999.81" cy="502.89" r="88.8"/><circle class="cls-2" cx="922.19" cy="332.75" r="62.68"/><circle class="cls-2" cx="1068.24" cy="346.5" r="25.68"/><circle class="cls-2" cx="475.14" cy="531.13" r="93.98"/><circle class="cls-2" cx="411.42" cy="700.7" r="21.09"/><circle class="cls-2" cx="782.69" cy="663.73" r="32.33"/><circle class="cls-2" cx="933.33" cy="690.47" r="41.4"/><circle class="cls-2" cx="111.19" cy="263.23" r="88.8"/><circle class="cls-2" cx="289.24" cy="276.67" r="40.36"/><circle class="cls-3" cx="527.4" cy="542.81" r="93.98"/><circle class="cls-3" cx="522.36" cy="723.9" r="21.09"/><circle class="cls-3" cx="368.32" cy="664.3" r="38.51"/><circle class="cls-3" cx="829.47" cy="675.82" r="54.69"/><circle class="cls-3" cx="691.12" cy="590.82" r="35.21"/><circle class="cls-3" cx="765.89" cy="503.96" r="22.41"/><circle class="cls-3" cx="861.69" cy="567.94" r="32.33"/><circle class="cls-3" cx="1012.82" cy="544.18" r="41.4"/><circle class="cls-3" cx="971.35" cy="664.2" r="11.27"/><circle class="cls-3" cx="96.38" cy="407.87" r="88.8"/><circle class="cls-3" cx="225.17" cy="543.47" r="62.68"/><circle class="cls-3" cx="269.11" cy="362.62" r="40.36"/><circle class="cls-3" cx="82.6" cy="578.02" r="25.68"/><circle class="cls-3" cx="354.18" cy="540.59" r="37.06"/><circle class="cls-3" cx="583.28" cy="210.36" r="93.98"/><circle class="cls-3" cx="588.32" cy="29.28" r="21.09"/><circle class="cls-3" cx="742.36" cy="88.87" r="38.51"/><circle class="cls-3" cx="281.21" cy="77.36" r="54.69"/><circle class="cls-3" cx="419.56" cy="162.36" r="35.21"/><circle class="cls-3" cx="527.72" cy="542.69" r="93.98"/><circle class="cls-3" cx="522.68" cy="723.77" r="21.09"/><circle class="cls-3" cx="368.64" cy="664.18" r="38.51"/><circle class="cls-3" cx="829.79" cy="675.69" r="54.69"/><circle class="cls-3" cx="691.44" cy="590.69" r="35.21"/><circle class="cls-3" cx="766.22" cy="503.84" r="22.41"/><circle class="cls-3" cx="862.01" cy="567.81" r="32.33"/><circle class="cls-3" cx="1013.15" cy="544.05" r="41.4"/><circle class="cls-3" cx="971.67" cy="664.08" r="11.27"/><circle class="cls-3" cx="96.7" cy="407.75" r="88.8"/><circle class="cls-3" cx="225.49" cy="543.35" r="62.68"/><circle class="cls-3" cx="269.44" cy="362.49" r="40.36"/><circle class="cls-3" cx="82.92" cy="577.9" r="25.68"/><circle class="cls-3" cx="354.51" cy="540.47" r="37.06"/><circle class="cls-3" cx="583.6" cy="210.24" r="93.98"/><circle class="cls-3" cx="588.64" cy="29.15" r="21.09"/><circle class="cls-3" cx="742.68" cy="88.75" r="38.51"/><circle class="cls-3" cx="281.53" cy="77.23" r="54.69"/><circle class="cls-3" cx="419.88" cy="162.23" r="35.21"/><circle class="cls-3" cx="345.11" cy="249.09" r="22.41"/><circle class="cls-3" cx="249.31" cy="185.11" r="32.33"/><circle class="cls-3" cx="98.18" cy="208.87" r="41.4"/><circle class="cls-3" cx="139.65" cy="88.85" r="11.27"/><circle class="cls-3" cx="1014.62" cy="345.18" r="88.8"/><circle class="cls-3" cx="885.83" cy="209.58" r="62.68"/><circle class="cls-3" cx="841.89" cy="390.43" r="40.36"/><circle class="cls-3" cx="1028.4" cy="175.03" r="25.68"/><circle class="cls-3" cx="447.79" cy="349.75" r="62.68"/><circle class="cls-3" cx="677.93" cy="381.84" r="37.06"/><circle class="cls-3" cx="344.78" cy="249.21" r="22.41"/><circle class="cls-3" cx="97.85" cy="209" r="41.4"/><circle class="cls-3" cx="139.33" cy="88.97" r="11.27"/><circle class="cls-3" cx="1014.3" cy="345.3" r="88.8"/><circle class="cls-3" cx="885.51" cy="209.7" r="62.68"/><circle class="cls-3" cx="841.56" cy="390.56" r="40.36"/><circle class="cls-3" cx="1028.08" cy="175.15" r="25.68"/><circle class="cls-3" cx="447.47" cy="349.87" r="62.68"/><circle class="cls-3" cx="677.61" cy="381.96" r="37.06"/><circle class="cls-3" cx="396.92" cy="418.12" r="93.98"/><circle class="cls-3" cx="119.07" cy="392.23" r="60.51"/><circle class="cls-3" cx="266.08" cy="637.94" r="77.48"/><circle class="cls-3" cx="227.09" cy="481.15" r="21.09"/><circle class="cls-3" cx="224.76" cy="316.01" r="38.51"/><circle class="cls-3" cx="413.62" cy="587.91" r="35.21"/><circle class="cls-3" cx="522.13" cy="624.78" r="22.41"/><circle class="cls-3" cx="283.3" cy="138.06" r="62.68"/><circle class="cls-3" cx="467.46" cy="111.19" r="40.36"/><circle class="cls-3" cx="334.21" cy="256.64" r="37.06"/><circle class="cls-3" cx="726.15" cy="345.63" r="93.98"/><circle class="cls-3" cx="1004" cy="371.51" r="60.51"/><circle class="cls-3" cx="856.99" cy="125.81" r="77.48"/><circle class="cls-3" cx="895.98" cy="282.59" r="21.09"/><circle class="cls-3" cx="898.31" cy="447.74" r="38.51"/><circle class="cls-3" cx="709.45" cy="175.84" r="35.21"/><circle class="cls-3" cx="397.16" cy="418.37" r="93.98"/><circle class="cls-3" cx="119.31" cy="392.49" r="60.51"/><circle class="cls-3" cx="266.32" cy="638.19" r="77.48"/><circle class="cls-3" cx="227.33" cy="481.41" r="21.09"/><circle class="cls-3" cx="225" cy="316.26" r="38.51"/><circle class="cls-3" cx="413.86" cy="588.16" r="35.21"/><circle class="cls-3" cx="522.37" cy="625.04" r="22.41"/><circle class="cls-3" cx="283.53" cy="138.31" r="62.68"/><circle class="cls-3" cx="467.7" cy="111.44" r="40.36"/><circle class="cls-3" cx="334.45" cy="256.89" r="37.06"/><circle class="cls-3" cx="726.39" cy="345.88" r="93.98"/><circle class="cls-3" cx="1004.24" cy="371.77" r="60.51"/><circle class="cls-3" cx="857.23" cy="126.06" r="77.48"/><circle class="cls-3" cx="896.22" cy="282.85" r="21.09"/><circle class="cls-3" cx="898.55" cy="447.99" r="38.51"/><circle class="cls-3" cx="709.69" cy="176.09" r="35.21"/><circle class="cls-3" cx="601.18" cy="139.22" r="22.41"/><circle class="cls-3" cx="840.01" cy="625.94" r="62.68"/><circle class="cls-3" cx="655.85" cy="652.81" r="40.36"/><circle class="cls-3" cx="789.1" cy="507.36" r="37.06"/><circle class="cls-3" cx="546.21" cy="272.1" r="62.68"/><circle class="cls-3" cx="602.51" cy="497.53" r="37.06"/><circle class="cls-3" cx="600.94" cy="138.96" r="22.41"/><circle class="cls-3" cx="839.78" cy="625.69" r="62.68"/><circle class="cls-3" cx="655.61" cy="652.56" r="40.36"/><circle class="cls-3" cx="788.86" cy="507.11" r="37.06"/><circle class="cls-3" cx="545.98" cy="271.84" r="62.68"/><circle class="cls-3" cx="602.27" cy="497.28" r="37.06"/><g class="cls-4"><path class="cls-5" d="M121.87,505C58.19,505,8.16,457.26,8.16,389.36s50-115.66,113.71-115.66c64,0,113.72,47.76,113.72,115.66S185.88,505,121.87,505Zm0-25.66c47.76,0,83.5-34.77,83.5-90,0-55.56-35.74-90-83.5-90s-83.5,34.44-83.5,90C38.37,444.59,74.11,479.36,121.87,479.36Z"/><path class="cls-5" d="M346.38,505c-45.49,0-77.65-25.34-78.3-62.7h31.51c2,18.84,15.27,37.69,46.79,37.69,28.59,0,45.48-16.25,45.48-37.69,0-61.08-122.48-22.09-122.48-106.24,0-37.37,30.21-62.71,75.05-62.71,43.21,0,71.48,23.72,75.05,58.16H387C385,316.26,370.75,299,343.13,298.71c-24.37-.65-43.54,12-43.54,36.39,0,58.48,122.17,22.1,122.17,105.92C421.76,473.18,395.44,505,346.38,505Z"/><path class="cls-5" d="M538.39,408.21H494.85v94.54H465.29V276.3h73.1c53.28,0,78.3,29.24,78.3,66.28C616.69,377,594.6,408.21,538.39,408.21Zm0-24.37c33.79,0,48.09-15.92,48.09-41.26,0-26.32-14.3-41.92-48.09-41.92H494.85v83.18Z"/><path class="cls-5" d="M731.05,505.67c-50.36,0-88.69-35.73-88.69-92.27,0-56.2,39.63-91.62,90-91.62,50.69,0,90,35.42,90,91.62C822.35,469.94,781.74,505.67,731.05,505.67Zm0-26c30.87,0,61.09-21.12,61.09-66.28,0-44.83-29.57-65.95-60.11-65.95-31.19,0-59.46,21.12-59.46,65.95C672.57,458.56,700.19,479.68,731.05,479.68Z"/><path class="cls-5" d="M939,505.67c-50.36,0-88.7-35.73-88.7-92.27,0-56.2,39.64-91.62,90-91.62,50.68,0,90,35.42,90,91.62C1030.29,469.94,989.67,505.67,939,505.67Zm0-26c30.87,0,61.08-21.12,61.08-66.28,0-44.83-29.56-65.95-60.1-65.95-31.19,0-59.46,21.12-59.46,65.95C880.51,458.56,908.13,479.68,939,479.68Z"/><path class="cls-5" d="M1069.28,262.33h29.56V502.75h-29.56Z"/></g><path class="cls-5" d="M123.87,503C60.19,503,10.16,455.26,10.16,387.36s50-115.66,113.71-115.66c64,0,113.72,47.76,113.72,115.66S187.88,503,123.87,503Zm0-25.66c47.76,0,83.5-34.77,83.5-90,0-55.56-35.74-90-83.5-90s-83.5,34.44-83.5,90C40.37,442.59,76.11,477.36,123.87,477.36Z"/><path class="cls-5" d="M348.38,503c-45.49,0-77.65-25.34-78.3-62.7h31.51c2,18.84,15.27,37.69,46.79,37.69,28.59,0,45.48-16.25,45.48-37.69,0-61.08-122.48-22.09-122.48-106.24,0-37.37,30.21-62.71,75.05-62.71,43.21,0,71.48,23.72,75.05,58.16H389C387,314.26,372.75,297,345.13,296.71c-24.37-.65-43.54,12-43.54,36.39,0,58.48,122.17,22.1,122.17,105.92C423.76,471.18,397.44,503,348.38,503Z"/><path class="cls-5" d="M540.39,406.21H496.85v94.54H467.29V274.3h73.1c53.28,0,78.3,29.24,78.3,66.28C618.69,375,596.6,406.21,540.39,406.21Zm0-24.37c33.79,0,48.09-15.92,48.09-41.26,0-26.32-14.3-41.92-48.09-41.92H496.85v83.18Z"/><path class="cls-5" d="M733.05,503.67c-50.36,0-88.69-35.73-88.69-92.27,0-56.2,39.63-91.62,90-91.62,50.69,0,90,35.42,90,91.62C824.35,467.94,783.74,503.67,733.05,503.67Zm0-26c30.87,0,61.09-21.12,61.09-66.28,0-44.83-29.57-65.95-60.11-65.95-31.19,0-59.46,21.12-59.46,65.95C674.57,456.56,702.19,477.68,733.05,477.68Z"/><path class="cls-5" d="M941,503.67c-50.36,0-88.7-35.73-88.7-92.27,0-56.2,39.64-91.62,90-91.62,50.68,0,90,35.42,90,91.62C1032.29,467.94,991.67,503.67,941,503.67Zm0-26c30.87,0,61.08-21.12,61.08-66.28,0-44.83-29.56-65.95-60.1-65.95-31.19,0-59.46,21.12-59.46,65.95C882.51,456.56,910.13,477.68,941,477.68Z"/><path class="cls-5" d="M1071.28,260.33h29.56V500.75h-29.56Z"/></g></g></svg>